<?xml version="1.0" encoding="utf-8"?>
<!-- Generator: Adobe Illustrator 18.1.1, SVG Export Plug-In . SVG Version: 6.00 Build 0)  -->
<svg version="1.1" id="Layer_1" xmlns="http://www.w3.org/2000/svg" xmlns:xlink="http://www.w3.org/1999/xlink" x="0px" y="0px"
	 viewBox="0 0 1019.6 383" enable-background="new 0 0 1019.6 383" xml:space="preserve">
<g>
	<g>
		<path fill-rule="evenodd" clip-rule="evenodd" fill="#999999" d="M593.1,269c-39.8,29.4-97.6,45-147.4,45
			c-69.7,0-132.5-25.8-180-68.7c-3.7-3.4-0.4-8,4.1-5.4c51.3,29.8,114.6,47.8,180.1,47.8c44.2,0,92.7-9.2,137.4-28.1
			C594.1,256.8,599.7,264.1,593.1,269z"/>
		<path fill-rule="evenodd" clip-rule="evenodd" fill="#999999" d="M609.7,250c-5.1-6.5-33.7-3.1-46.5-1.6c-3.9,0.5-4.5-2.9-1-5.4
			c22.8-16,60.2-11.4,64.5-6c4.4,5.4-1.1,42.9-22.5,60.8c-3.3,2.8-6.4,1.3-5-2.4C604.1,283.5,614.8,256.6,609.7,250z"/>
	</g>
	<g>
		<path fill-rule="evenodd" clip-rule="evenodd" fill="#999999" d="M564.1,129.9v-15.6c0-2.4,1.8-3.9,3.9-3.9l69.8,0
			c2.2,0,4,1.6,4,3.9l0,13.4c0,2.2-1.9,5.2-5.3,9.8l-36.1,51.6c13.4-0.3,27.6,1.7,39.8,8.5c2.7,1.5,3.5,3.8,3.7,6.1v16.6
			c0,2.3-2.5,4.9-5.1,3.6c-21.5-11.2-50-12.5-73.7,0.1c-2.4,1.3-5-1.3-5-3.6v-15.8c0-2.5,0-6.8,2.6-10.7l41.9-60.1l-36.5,0
			C565.9,133.8,564.1,132.2,564.1,129.9z"/>
		<path fill-rule="evenodd" clip-rule="evenodd" fill="#999999" d="M309.6,227.1h-21.2c-2-0.1-3.6-1.7-3.8-3.6l0-108.9
			c0-2.2,1.8-3.9,4.1-3.9l19.8,0c2.1,0.1,3.7,1.7,3.9,3.7v14.2h0.4c5.2-13.8,14.9-20.2,27.9-20.2c13.3,0,21.6,6.4,27.5,20.2
			c5.1-13.8,16.8-20.2,29.3-20.2c8.9,0,18.6,3.7,24.6,11.9c6.7,9.2,5.4,22.5,5.4,34.2l0,68.7c0,2.2-1.8,3.9-4.1,3.9h-21.2
			c-2.1-0.1-3.8-1.8-3.8-3.9l0-57.8c0-4.6,0.4-16-0.6-20.4c-1.6-7.3-6.3-9.4-12.5-9.4c-5.2,0-10.5,3.4-12.7,8.9
			c-2.2,5.5-2,14.7-2,20.9v57.7c0,2.2-1.8,3.9-4.1,3.9h-21.2c-2.1-0.1-3.8-1.8-3.8-3.9l0-57.8c0-12.2,2-30-13.1-30
			c-15.3,0-14.7,17.4-14.7,30l0,57.7C313.7,225.4,311.8,227.1,309.6,227.1z"/>
		<path fill-rule="evenodd" clip-rule="evenodd" fill="#999999" d="M701.9,108.4c31.5,0,48.5,27.1,48.5,61.4
			c0,33.2-18.8,59.6-48.5,59.6c-30.9,0-47.8-27.1-47.8-60.8C654.2,134.8,671.2,108.4,701.9,108.4z M702.1,130.6
			c-15.7,0-16.6,21.3-16.6,34.6c0,13.3-0.2,41.7,16.4,41.7c16.4,0,17.2-22.9,17.2-36.9c0-9.2-0.4-20.2-3.2-28.9
			C713.6,133.6,708.8,130.6,702.1,130.6z"/>
		<path fill-rule="evenodd" clip-rule="evenodd" fill="#999999" d="M791.3,227.1h-21.1c-2.1-0.1-3.8-1.8-3.8-3.9l0-109
			c0.2-2,1.9-3.6,4.1-3.6l19.7,0c1.9,0.1,3.4,1.4,3.8,3.1v16.7h0.4c5.9-14.9,14.3-22,28.9-22c9.5,0,18.8,3.4,24.8,12.8
			c5.5,8.7,5.5,23.4,5.5,33.9v68.6c-0.2,1.9-2,3.4-4.1,3.4h-21.3c-2-0.1-3.6-1.6-3.8-3.4v-59.2c0-11.9,1.4-29.3-13.3-29.3
			c-5.2,0-9.9,3.4-12.3,8.7c-3,6.6-3.4,13.3-3.4,20.6v58.7C795.4,225.4,793.6,227.1,791.3,227.1z"/>
		<path fill-rule="evenodd" clip-rule="evenodd" fill="#999999" d="M508.5,175.1c0,8.3,0.2,15.2-4,22.5c-3.4,6-8.7,9.6-14.7,9.6
			c-8.1,0-12.9-6.2-12.9-15.4c0-18.1,16.2-21.4,31.6-21.4V175.1z M529.9,226.9c-1.4,1.3-3.4,1.3-5,0.5c-7-5.9-8.3-8.6-12.2-14.1
			c-11.7,11.9-19.9,15.4-35,15.4c-17.9,0-31.8-11-31.8-33.1c0-17.2,9.3-28.9,22.6-34.7c11.5-5.1,27.6-6,39.9-7.4v-2.8
			c0-5.1,0.4-11-2.6-15.4c-2.6-3.9-7.5-5.5-11.9-5.5c-8.1,0-15.3,4.1-17.1,12.7c-0.4,1.9-1.8,3.8-3.7,3.9l-20.6-2.2
			c-1.7-0.4-3.7-1.8-3.2-4.4c4.7-25,27.3-32.5,47.5-32.5c10.3,0,23.8,2.8,32,10.6c10.3,9.6,9.3,22.5,9.3,36.5v33.1
			c0,9.9,4.1,14.3,8,19.7c1.4,1.9,1.7,4.2-0.1,5.6C541.9,216.5,534.2,223.1,529.9,226.9L529.9,226.9z"/>
		<path fill-rule="evenodd" clip-rule="evenodd" fill="#999999" d="M230.2,175.1c0,8.3,0.2,15.2-4,22.5c-3.4,6-8.7,9.6-14.7,9.6
			c-8.1,0-12.9-6.2-12.9-15.4c0-18.1,16.2-21.4,31.6-21.4V175.1z M251.6,226.9c-1.4,1.3-3.4,1.3-5,0.5c-7.1-5.9-8.3-8.6-12.2-14.1
			c-11.7,11.9-19.9,15.4-35,15.4c-17.9,0-31.8-11-31.8-33.1c0-17.2,9.3-28.9,22.6-34.7c11.5-5.1,27.6-6,39.9-7.4v-2.8
			c0-5.1,0.4-11-2.6-15.4c-2.6-3.9-7.5-5.5-11.9-5.5c-8.1,0-15.3,4.1-17.1,12.7c-0.4,1.9-1.8,3.8-3.7,3.9l-20.6-2.2
			c-1.7-0.4-3.7-1.8-3.2-4.4c4.7-25,27.3-32.5,47.5-32.5c10.3,0,23.8,2.8,32,10.6c10.3,9.6,9.3,22.5,9.3,36.5v33.1
			c0,9.9,4.1,14.3,8,19.7c1.4,1.9,1.7,4.2-0.1,5.6C263.6,216.5,255.9,223.1,251.6,226.9L251.6,226.9z"/>
	</g>
</g>
</svg>
