<?xml version="1.0" encoding="utf-8"?>
<!-- Generator: Adobe Illustrator 18.1.1, SVG Export Plug-In . SVG Version: 6.00 Build 0)  -->
<svg version="1.1" id="Layer_1" xmlns="http://www.w3.org/2000/svg" xmlns:xlink="http://www.w3.org/1999/xlink" x="0px" y="0px"
	 viewBox="0 0 326 383" enable-background="new 0 0 326 383" xml:space="preserve">
<path fill="#999999" d="M31,127.9c-12.6,0-22.7,10.2-22.7,22.7l0,95.2c0,12.6,10.2,22.7,22.7,22.7c12.6,0,22.7-10.2,22.7-22.7
	l0-95.2C53.8,138.1,43.6,127.9,31,127.9 M214.4,42.4l15.9-29c0.8-1.5,0.3-3.4-1.2-4.3c-1.5-0.8-3.5-0.3-4.3,1.3l-16,29.3
	c-13.5-6-28.6-9.4-44.6-9.4c-15.9,0-31,3.3-44.4,9.3l-16-29.2c-0.8-1.5-2.8-2.1-4.3-1.3c-1.5,0.8-2.1,2.8-1.3,4.3l15.9,29
	c-31.2,16.1-52.3,46.7-52.3,81.9l204.8,0C266.6,89.1,245.5,58.5,214.4,42.4 M117.6,87.2c-4.7,0-8.6-3.8-8.6-8.6
	c0-4.7,3.8-8.6,8.6-8.6c4.7,0,8.6,3.9,8.6,8.6C126.2,83.4,122.3,87.2,117.6,87.2 M210.8,87.2c-4.7,0-8.6-3.8-8.6-8.6
	c0-4.7,3.8-8.6,8.6-8.6c4.7,0,8.6,3.9,8.6,8.6C219.4,83.3,215.6,87.2,210.8,87.2 M62.6,132.2l0,147.6c0,13.4,10.8,24.3,24.3,24.3
	l16.5,0l0,50.4c0,12.5,10.2,22.7,22.7,22.7c12.6,0,22.7-10.2,22.7-22.8l0-50.4l30.7,0l0,50.4c0,12.5,10.2,22.7,22.7,22.7
	c12.6,0,22.7-10.2,22.7-22.7l0-50.4l16.6,0c13.4,0,24.3-10.8,24.3-24.3l0-147.6L62.6,132.2z M320.1,150.6
	c0-12.6-10.2-22.7-22.7-22.7c-12.6,0-22.7,10.2-22.7,22.7l0,95.2c0,12.6,10.2,22.7,22.7,22.7c12.6,0,22.7-10.2,22.7-22.7
	L320.1,150.6z"/>
</svg>
