<?xml version="1.0" encoding="utf-8"?>
<!-- Generator: Adobe Illustrator 18.1.1, SVG Export Plug-In . SVG Version: 6.00 Build 0)  -->
<svg version="1.1" id="Layer_1" xmlns="http://www.w3.org/2000/svg" xmlns:xlink="http://www.w3.org/1999/xlink" x="0px" y="0px"
	 viewBox="0 0 326 383" enable-background="new 0 0 326 383" xml:space="preserve">
<g>
	<g>
		<path fill="#999999" d="M261.3,202.4c-0.4-46,37.7-68.4,39.4-69.4c-21.6-31.4-55-35.7-66.7-36.1c-28.1-3-55.3,16.8-69.6,16.8
			c-14.6,0-36.6-16.5-60.3-16c-30.5,0.5-59.1,18.2-74.8,45.6c-32.3,56-8.2,138.2,22.8,183.5c15.5,22.2,33.6,46.9,57.3,46
			c23.2-1,31.9-14.8,59.8-14.8c27.7,0,35.9,14.8,60,14.2c24.9-0.4,40.6-22.3,55.5-44.6c17.9-25.4,25.1-50.4,25.4-51.7
			C309.6,275.7,261.8,257.5,261.3,202.4z"/>
		<path fill="#999999" d="M215.7,67.1c12.5-15.6,21-36.8,18.6-58.4c-18.1,0.8-40.6,12.5-53.6,27.7c-11.5,13.4-21.8,35.5-19.1,56.2
			C181.8,94.2,202.7,82.5,215.7,67.1z"/>
	</g>
</g>
</svg>
