<?xml version="1.0" encoding="utf-8"?>
<!-- Generator: Adobe Illustrator 18.1.1, SVG Export Plug-In . SVG Version: 6.00 Build 0)  -->
<svg version="1.1" id="Layer_1" xmlns="http://www.w3.org/2000/svg" xmlns:xlink="http://www.w3.org/1999/xlink" x="0px" y="0px"
	 viewBox="0 0 1019.6 383" enable-background="new 0 0 1019.6 383" xml:space="preserve">
<g>
	<g>
		<path fill="#999999" d="M580.1,191.4c-0.3-37.3,30.5-55.4,31.9-56.2c-17.5-25.5-44.5-28.9-54.1-29.2
			c-22.7-2.4-44.8,13.6-56.4,13.6c-11.8,0-29.7-13.4-48.9-13c-24.7,0.4-47.9,14.7-60.6,36.9c-26.2,45.3-6.7,112,18.4,148.6
			c12.6,18,27.2,38,46.4,37.3c18.8-0.8,25.8-12,48.5-12c22.5,0,29,12,48.6,11.5c20.2-0.3,32.9-18,45-36.1
			c14.5-20.6,20.3-40.8,20.6-41.9C619.1,250.8,580.4,236.1,580.1,191.4z"/>
		<path fill="#999999" d="M543.1,81.8c10.1-12.6,17-29.8,15.1-47.3c-14.6,0.6-32.9,10.1-43.4,22.5c-9.3,10.9-17.6,28.7-15.5,45.5
			C515.7,103.8,532.5,94.3,543.1,81.8z"/>
	</g>
</g>
</svg>
