<?xml version="1.0" encoding="utf-8"?>
<!-- Generator: Adobe Illustrator 18.1.1, SVG Export Plug-In . SVG Version: 6.00 Build 0)  -->
<svg version="1.1" id="Layer_1" xmlns="http://www.w3.org/2000/svg" xmlns:xlink="http://www.w3.org/1999/xlink" x="0px" y="0px"
	 viewBox="0 0 1019.6 383" enable-background="new 0 0 1019.6 383" xml:space="preserve">
<g id="Layer_x0020_1">
	<g id="g10326">
		<path id="path10342" fill="#999999" d="M241.5,59.8c-25.4,0.7-45.9,3.9-50.5,8.8c-4,4.4-9.1,8-9.3,13.9c-0.2,5.8,6.6,6.3,10.7,6.3
			s7.8-0.3,7.8-2.8c0-3.3-5.4-2.7-5.4-6c0-3.9,21-4.8,31.5-4.8c90.1-0.3,193.8,62.1,193.9,115c0.2,41.1-53.4,50.3-82.9,50.4
			c-10.5,0.1-20.7-1.1-30.4-2.9c-0.4-13.2-1.2-40.6-1.6-58c3.4-0.1,6.6-0.1,9.4-0.1c21.8-0.1,50.5,7.6,50.6,12.7
			c0,4.4-7.6,7.4-7.6,11.6c0.1,3.1,7.1,2.6,13.2,3c1.1,0.1,13.5-6.8,13.4-17.7c0-14.4-18-31.5-76.7-31.3c-0.8,0-1.7,0.1-2.5,0.1
			c-0.6-16.2-2.9-41.7-12.1-41.7c-7.6,0.1-9.8,28.1-10.5,43.7c-32.9,4.9-62.2,18.3-62.1,31.5c0,10.8,23.5,38,61.6,54.5
			c0.6,12.2,3,20.6,13.8,20.5c7.9,0,10.5-5.8,11.4-11.9c12.3,3.2,25.7,4.9,39.8,4.9c55.3-0.2,99.6-29.7,99.4-70.1
			C446.1,135.1,336.6,57.1,241.5,59.8L241.5,59.8z M226.7,194.7c0-9.4,28.8-13,55.3-14.3c-0.2,14.8-0.4,36.2-0.4,50.3
			C248.9,219.2,226.7,200.9,226.7,194.7z"/>
		<path id="path10344" fill="#999999" d="M466.1,159.3c-9.4,0.1-9.6,37.7-9.8,51.4c-0.6,31.4,4,35.1,12.3,35
			c7.5,0,10.1-0.9,9.4-27.1C476.8,168.9,473.4,159.3,466.1,159.3L466.1,159.3z"/>
		<path id="path10346" fill="#999999" d="M470.9,145c20.7-0.1,53.6-23.5,53.5-43c0-8.8-4.5-13.2-15.9-14.9
			c-4.8-4.5-11.7-9.6-22.1-9.6c-32.2,0.1-53,25.7-53,39.6c0,5.2,1.7,11.5,6.3,16.8c0.2,11.1,2.9,14,6.5,14c4,0,6.4-2.3,8-5.2
			C458.8,144.3,464.4,145.1,470.9,145z M473.1,129.2c-4.8,0-8.8-0.6-12.2-1.6c9.1-10.3,31.2-29.8,42.1-29.8c7.1-0.1,8.3,5.6,8.3,7.8
			C511.3,118.7,484.6,129.3,473.1,129.2L473.1,129.2z M474.6,94.6c-9.9,5.9-20.1,14-26.8,22.1c-0.3-1.1-0.5-2.1-0.5-3.1
			C447.2,107.3,456.4,97.7,474.6,94.6z"/>
		<path id="path10348" fill="#999999" d="M578,166c-0.1-8.6-22.4-8.6-35-8.5c-9.4,0-57.3,1.1-57.2,27.8
			c0.1,18.1,26.8,13.7,44.6,15.5c14.5,1.4,32.1,6.1,32.1,10.9c0.1,10.5-38.3,14.8-46.2,14.9c-16.3,0-16.6-4.7-16.6-7.1
			c0-2.4,2.7-6.4,8.8-6.4s18.6,7.8,27.3,7.8c8.6-0.1,15.9-3.9,15.9-7.8c0-7.1-28.7-10.5-37.6-10.5c-9.3,0.1-22.7,3.9-22.7,17.8
			c0.1,7.2,11.9,24.4,45.3,24.3c32.9-0.1,41.2-18.8,41.1-28.4c-0.1-23.5-22.2-26.1-41.5-27.7c-14.4-1.2-30.1-1.9-30-5.1
			C506.2,172.7,578,180.7,578,166L578,166z"/>
		<path id="path10350" fill="#999999" d="M632.6,146.2c-2.7,0-3.2,2.9-3.2,5.9c0.1,9.1,12.7,41.1,12.7,53.2c0,2.5-0.2,7.1-2.1,7.6
			c-3,0.9-29.5-47.4-40.4-48.1c-11.3-0.8-17.4,47.3-17.3,59.2c0.1,11.9,2.1,19.8,10.9,19.8c13.1-0.1,6.3-48.2,11.6-48.2
			c3.9,0,25.2,44,37,44c12.8-0.1,20.5-18.9,20.4-31.1C662,180.6,643.4,146.2,632.6,146.2L632.6,146.2z"/>
		<path id="path10352" fill="#999999" d="M721.4,220.7c-4.6,0-30.2,5.7-31.9,4.1c-1.7-1.6,1.4-16.3,4.7-17.4c3.3-1,23.2-0.7,26.5-1
			c9.3-0.5,7.5-13.1,1.8-13.6c-2.9-0.2-21.1-0.3-22-2s0.2-10,2.3-10.9c4.1-1.7,31.6-2.5,33.7-3c3.4-0.8,5.9-2.6,6.7-5.5
			c0.9-2.9-9.5-14.9-22.4-13.6c-22,2.5-50.7,2.3-50.7,9.5c0,6.7,13.4,9.4,13.7,11.3c0.4,1.8-1.7,8.9-2.5,11
			c-0.8,2.4-10.4,3.1-11,9.7c-0.2,1.5,2.4,3.9,1.8,5.7c-1.5,5.6-6,17-6,21.7c0.1,7.3,5.4,23.6,20.5,23.1
			c23.6-0.8,44.9-17.3,45.2-20.2c0.6-4.4-6-9.4-10.5-9.4L721.4,220.7z"/>
		<path id="path10354" fill="#999999" d="M813,164.6c-12.9,0.7-37.7,28.1-52.2,46.5c-0.9-1.9-1.4-3.7-1.4-5.4
			c0-7.8,14.7-31.2,17.4-37c2.9-6.1-0.4-14.1-3.9-11.3c-7,5.6-29,31.3-28.9,55.3c0,5.5,1.4,12.2,4.5,18.3c-5,16-17,51.8-16.6,73.4
			c0.2,11.2,11.5,22.2,18.2,20.8c2.6-0.6,3.2-15.2,6.6-25.2c4.8-14.3,12.4-40.4,15.1-51.6c1.2,0.1,2.5,0.2,3.8,0.2
			c27-0.1,56.8-28.8,56.8-53.6C832.4,170.4,817.7,164.4,813,164.6L813,164.6z M782,225.8c10.8-18.8,26.6-43.7,32.4-43.6
			c4,0.1,5.6,4.1,5.6,10.2C820.2,210.9,797.9,226.1,782,225.8z"/>
	</g>
</g>
</svg>
