<?xml version="1.0" encoding="utf-8"?>
<!-- Generator: Adobe Illustrator 18.1.1, SVG Export Plug-In . SVG Version: 6.00 Build 0)  -->
<svg version="1.1" id="Layer_1" xmlns="http://www.w3.org/2000/svg" xmlns:xlink="http://www.w3.org/1999/xlink" x="0px" y="0px"
	 viewBox="0 0 320 320" enable-background="new 0 0 320 320" xml:space="preserve">
<path fill-rule="evenodd" clip-rule="evenodd" fill="#999999" d="M161,304.1c-79,0-143.3-64.2-143.3-143.1
	C17.7,82.1,82,17.9,161,17.9c79,0,143.3,64.2,143.3,143.1C304.3,239.9,240,304.1,161,304.1L161,304.1z M281.8,180.6
	c-4.2-1.3-37.9-11.4-76.2-5.2c16,43.9,22.5,79.7,23.8,87.1C256.8,244,276.4,214.6,281.8,180.6L281.8,180.6z M208.8,273.7
	c-1.8-10.7-8.9-48.1-26.1-92.7c-0.3,0.1-0.5,0.2-0.8,0.3c-69,24-93.8,71.8-96,76.3c20.8,16.2,46.8,25.8,75.1,25.8
	C178,283.4,194.1,279.9,208.8,273.7L208.8,273.7z M70.1,242.9c2.8-4.7,36.4-60.3,99.5-80.7c1.6-0.5,3.2-1,4.8-1.5
	c-3.1-6.9-6.4-13.9-9.9-20.7C103.3,158.3,44,157.6,38.7,157.5c0,1.2-0.1,2.5-0.1,3.7C38.6,192.6,50.5,221.2,70.1,242.9L70.1,242.9z
	 M41.2,136.2c5.5,0.1,55.9,0.3,113.1-14.9c-20.3-36-42.1-66.3-45.4-70.7C74.7,66.7,49.1,98.2,41.2,136.2L41.2,136.2z M132.3,42.4
	c3.4,4.5,25.6,34.8,45.7,71.5c43.5-16.3,61.9-41,64.1-44.1C220.5,50.6,192.1,39,161,39C151.1,39,141.5,40.1,132.3,42.4L132.3,42.4z
	 M255.7,83.9c-2.6,3.5-23.1,29.7-68.3,48.2c2.8,5.8,5.6,11.7,8.1,17.7c0.9,2.1,1.8,4.2,2.6,6.3c40.7-5.1,81.2,3.1,85.2,3.9
	C283.1,131.2,272.8,104.7,255.7,83.9L255.7,83.9z"/>
</svg>
