<?xml version="1.0" encoding="utf-8"?>
<!-- Generator: Adobe Illustrator 18.1.1, SVG Export Plug-In . SVG Version: 6.00 Build 0)  -->
<svg version="1.1" id="Layer_1" xmlns="http://www.w3.org/2000/svg" xmlns:xlink="http://www.w3.org/1999/xlink" x="0px" y="0px"
	 viewBox="0 0 1019.6 383" enable-background="new 0 0 1019.6 383" xml:space="preserve">
<path fill="#999999" d="M534.7,182.8c-6.8,0-11.7,2.3-16.6,4.5v50.8c4.5,0.4,7.5,0.4,12,0.4c16.2,0,18.4-7.5,18.4-17.7v-24.1
	C548.6,188.8,546,182.8,534.7,182.8z M427.8,180.2c-11.3,0-13.6,6-13.6,13.9v4.1h27.5v-4.1C441.3,186.2,438.7,180.2,427.8,180.2z
	 M220.3,232.9c0,6,3,9,9,9c6.8,0,10.5-2.3,15.4-4.5v-12h-14.7C223.3,225.4,220.3,226.9,220.3,232.9z M639,182.8
	c-11.3,0-15.1,6-15.1,13.6v27.9c0,7.5,3.8,13.9,15.1,13.9c11.3,0,15.1-6,15.1-13.9v-27.9C654,188.8,650.3,182.8,639,182.8z
	 M165.3,264.1h-32.8v-79.8H116v-27.5h16.6v-16.6c0-22.6,9.4-35.8,35.8-35.8h21.8V132h-13.6c-10.2,0-10.9,3.8-10.9,10.9v13.9h24.8
	l-3,27.5h-21.8v79.8H165.3z M277.9,264.1h-27.5l-1.1-6.8c-12.4,6.8-23.7,7.9-31.2,7.9c-20,0-30.9-13.6-30.9-32
	c0-21.8,12.4-29.7,35-29.7h22.6v-4.9c0-11.3-1.1-14.3-18.4-14.3h-27.9l2.6-27.5H232c37.6,0,45.9,12,45.9,42.2V264.1z M371.3,186.2
	c-16.9-3-21.8-3.4-30.1-3.4c-14.7,0-19.2,3.4-19.2,15.8v23.7c0,12.4,4.5,15.8,19.2,15.8c8.3,0,13.2-0.8,30.1-3.8v26.7
	c-15.1,3.4-24.8,4.1-33.1,4.1c-35.4,0-49.3-18.4-49.3-45.6v-19.2c0-26.7,13.9-45.6,49.3-45.6c8.3,0,18.1,0.8,33.1,4.1V186.2z
	 M474.4,220.1h-60.2v2.3c0,12.4,4.5,15.8,19.2,15.8c13.2,0,21.5-0.8,38.4-3.8v26.7c-16.6,3.4-24.8,4.1-41,4.1
	c-35.4,0-49.3-18.4-49.3-45.6v-21.8c0-23.3,10.5-42.9,46.7-42.9s46.7,19.2,46.7,42.9v22.2H474.4z M581.4,220.5
	c0,26-7.5,44.8-52.3,44.8c-16.2,0-25.6-1.5-43.7-4.1V112.8l32.8-5.6v52c7.2-2.6,16.2-4.1,24.8-4.1c32.8,0,38.4,14.7,38.4,38.4
	L581.4,220.5L581.4,220.5z M686.8,221.2c0,22.2-9.4,44-47.8,44c-38.8,0-48.2-21.8-48.2-44v-21.8c0-22.6,9.4-44,48.2-44
	c38.8,0,47.8,21.8,47.8,44V221.2z M792.6,221.2c0,22.2-9.4,44-47.8,44c-38.8,0-48.2-21.8-48.2-44v-21.8c0-22.6,9.4-44,48.2-44
	c38.8,0,47.8,21.8,47.8,44V221.2z M900.6,264.1h-35.8l-30.1-50.5v50.5H802V112.8l32.8-5.6v97.1l30.1-47.8h35.8l-33.1,52.3
	L900.6,264.1z M744.4,182.8c-11.3,0-15.1,6-15.1,13.6v27.9c0,7.5,3.8,13.9,15.1,13.9c11.3,0,15.1-6,15.1-13.9v-27.9
	C759.5,188.8,755.7,182.8,744.4,182.8z"/>
</svg>
