<?xml version="1.0" encoding="utf-8"?>
<!-- Generator: Adobe Illustrator 18.1.1, SVG Export Plug-In . SVG Version: 6.00 Build 0)  -->
<svg version="1.1" id="Layer_1" xmlns="http://www.w3.org/2000/svg" xmlns:xlink="http://www.w3.org/1999/xlink" x="0px" y="0px"
	 viewBox="0 0 1019.6 383" enable-background="new 0 0 1019.6 383" xml:space="preserve">
<path fill-rule="evenodd" clip-rule="evenodd" fill="#999999" d="M896,179.1c4.1-1.7,4.4-2,2.9-6.3c-8.7-24.8-41.4-38.2-69.2-26.6
	c-22,9.2-37.9,32.4-37.9,58.4c0,35,25.3,66.1,59.6,66.1c15.7,0,26.9-2.2,36.9-8.5c2.1-2,14.2-11.6,14.3-13.7c0-0.5-1.7,1-4.3,2.5
	c-7.8,4.1-19.4,5.6-28.5,5.8c-18.4,0.3-33.2-12.2-42.8-27.2c-6.2-9.6-10.2-20.6-11.2-32.4c-1.5-18.1,2.9-39,23.4-44.1
	c13.6-3.4,26.5,4.2,31.5,17.3c2.3,6,0.9,9-4.6,11.3l-49.2,20.6l16.8,1.1C853.7,195.1,876,187.4,896,179.1L896,179.1z"/>
<path fill-rule="evenodd" clip-rule="evenodd" fill="#999999" d="M744.4,78.1c12.5,0,24.3,0,36.8,0c-5.1,3.3-6.8,4.7-9,8.2
	c-1.6,2.5-2,7.2-2.3,11.5c-2.1,49.1-0.8,98.6-1.1,147.7c0.2,13.4,5.5,11.8,22.9,11.3c-2.6,2.2-6.9,6.6-10.2,8.5
	c-15.7,0-30.7-0.3-46.4-0.3c5.9-6.1,8.9-10,8.5-25.3c0.3-51.3-1.7-100.5,1.4-150c-7.4,0.2-14,0.1-21.4,0.3
	C730.5,86.4,737.1,81.3,744.4,78.1L744.4,78.1z"/>
<path fill-rule="evenodd" clip-rule="evenodd" fill="#999999" d="M677.9,273.6c2.6,1.9,5.4,3.8,8.2,5.6
	c15.4,9.8,20.4,21.7,19.1,32.8c-1.5,13.3-14.3,23.8-36.1,25.1c-23.3,1.4-54.8-7.8-49-38.5c3.1-16.4,24.8-24.8,42.8-25.4
	C667.9,273.1,673,273.5,677.9,273.6L677.9,273.6z M730.7,145.8L715,156h-17.9c7.6,5.3,13.4,12.9,16.5,21.4c3.4,9,3.9,19,0.4,28.2
	c-3.3,8.7-9.9,16.2-19.6,21.9c-5.5,3.2-8.3,7.3-8.6,11.3c-0.9,11.5,13.1,19.8,21.2,25.9c17.7,13.3,24.7,35,12.9,56.1
	c-11.2,20.1-37.9,29-66.2,29.1c-35.2-0.2-57.4-16.3-58.6-38.2c-1.5-28.4,27.6-41.9,53.9-45c7.4-0.9,14-0.7,20.1-0.3
	c-9.3-6.1-12.8-18.6-8-27c1.2-2.2,0.5-1.4-1.9-1.1c-21.5,3.3-43.7-10.8-48.9-32c-2.6-10.8-1-22,3.1-30.8
	c8.9-19.1,28.7-29.8,50.7-29.8C687.1,145.7,708.3,145.7,730.7,145.8L730.7,145.8z M691.2,192.5c2.8,17-1.5,33.1-16.9,37.4
	c-15.7,4.4-33.1-7.9-38.7-29.8c-6.1-24,0.2-39.3,15-43.9C668.1,150.8,686.9,166.6,691.2,192.5L691.2,192.5z"/>
<path fill-rule="evenodd" clip-rule="evenodd" fill="#999999" d="M530.8,142.3c42.2,0,64.2,28,66.2,60.9c2,32.7-25,62-58.1,65.5
	c-39.7,4.2-74.4-23.2-74.4-63.1C464.4,170.8,494.2,142.3,530.8,142.3L530.8,142.3z M570.6,207.4c2.4,24.1-5.7,46.4-27.3,51.4
	c-22.1,5.1-45.5-13.2-51.4-44.4c-6.4-34.2,4.2-56.7,25.1-62.2C541.7,145.7,566.9,170.6,570.6,207.4L570.6,207.4z"/>
<path fill-rule="evenodd" clip-rule="evenodd" fill="#999999" d="M386.1,142.3c42.7,0,65,28,67,60.9c2,32.7-25.3,62-58.8,65.5
	c-40.2,4.2-75.3-23.2-75.3-63.1C319,170.8,349.2,142.3,386.1,142.3L386.1,142.3z M426.5,207.4c2.4,24.1-5.7,46.4-27.6,51.4
	c-22.4,5.1-46.1-13.2-52-44.4c-6.5-34.2,4.2-56.7,25.4-62.2C397.3,145.7,422.7,170.6,426.5,207.4L426.5,207.4z"/>
<path fill-rule="evenodd" clip-rule="evenodd" fill="#999999" d="M280.1,124.7l19.2-19.6c-32.6-27-88.4-30.5-125.5-11.8
	c-32.2,16.3-55.6,48.6-56.8,84.7c-1.2,38,20.9,68.1,43.3,83.2c37,25,101.2,19.4,139.8-0.1l0-3.6h0v-39.8l9-10.5h-56.3L232,218.9
	l40.5-1.2c0,11.3,0,23.8,0,35.1c0,5,0.1,5.8-8.1,8.4c-11.6,3-24.6,3.6-36.5,2.6c-40.4-3.4-71.3-35.3-78.6-75.2
	c-6.9-37.8,10.9-73.6,41-88.3c14.7-7.2,32.4-10.6,51.5-4.5c12,3.8,22.9,10.8,32.4,20.3l-6.6,12L280.1,124.7L280.1,124.7z"/>
</svg>
