<?xml version="1.0" encoding="utf-8"?>
<!-- Generator: Adobe Illustrator 18.1.1, SVG Export Plug-In . SVG Version: 6.00 Build 0)  -->
<svg version="1.1" id="Layer_1" xmlns="http://www.w3.org/2000/svg" xmlns:xlink="http://www.w3.org/1999/xlink" x="0px" y="0px"
	 viewBox="0 0 48 48" enable-background="new 0 0 48 48" xml:space="preserve">
<g>
	<path fill="#0000FF" d="M32,13h-1c-1.1,0-2,0.9-2,2v12h2V15h1v6v2h2v-2v-6v-2H32z"/>
	<path fill="#0000FF" d="M35,11h-1c-1.1,0-2,0.9-2,2v8h2v-8h1v6v2h2v-2v-6v-2H35z"/>
	<path fill="#0000FF" d="M38,13h-1c-1.1,0-2,0.9-2,2v8h2v-8h1v6v2h2v-2v-6v-2H38z"/>
	<path fill="#0000FF" d="M47.2,33.8L43,29.6V23v-6v-2h-2h-1c-1.1,0-2,0.9-2,2v7h2v-7h1v6v8h0.6l4.2,4.2L47.2,33.8z"/>
	<path fill="none" stroke="#0000FF" stroke-width="2" stroke-miterlimit="10" d="M30,21.1c-2.3-1.8-4.2-1-4,0.9c0.8,5.9,0.7,6,1,8
		c0.7,3.3,4.7,5.3,8,6l4.9,4.9"/>
	<path fill="none" stroke="#0000FF" stroke-miterlimit="10" d="M37.2,33c2.1-1.5,4-2.1,5.7-2.2"/>
</g>
<g>
	<path fill="#0000FF" d="M13,11h1c1.1,0,2,0.9,2,2v8h-2v-8h-1v6v2h-2v-2v-6v-2H13z"/>
	<path fill="#0000FF" d="M16,13h1c1.1,0,2,0.9,2,2v8h-2v-8h-1v6v1h-2v-1v-6v-2H16z"/>
	<path fill="#0000FF" d="M10,13h1c1.1,0,2,0.9,2,2v8h-2v-8h-1v6v2H8v-2v-6v-2H10z"/>
	<path fill="#0000FF" d="M19,15h1c1.1,0,2,0.9,2,2v12h-2V17h-1v6l0,0h-2l0,0v-6v-2H19z"/>
	<path fill="none" stroke="#0000FF" stroke-width="2" stroke-miterlimit="10" d="M8,33c-1.5-1-1.7-1.3-2-3c-0.3-2,0.4-2.2-1-8
		c-0.5-2.1,4.6-4.6,5,7"/>
	<path fill="none" stroke="#0000FF" stroke-width="2" stroke-miterlimit="10" d="M21,29c0,3.8-3.8,5.5-7.9,6l-5.5,5.5"/>
	<path fill="none" stroke="#0000FF" stroke-miterlimit="10" d="M9,24.5c7.1-4.9,12,0,12,0"/>
	<path fill="none" stroke="#0000FF" stroke-miterlimit="10" d="M18,29.4"/>
	<path fill="none" stroke="#0000FF" stroke-miterlimit="10" d="M9.9,27.6c2.5-0.4,4.5,0,6.1,0.6"/>
	<path fill="none" stroke="#0000FF" stroke-miterlimit="10" d="M15.2,24.7c2.1,1.5,4,2.1,5.7,2.2"/>
	<line fill="none" stroke="#0000FF" stroke-width="2" stroke-miterlimit="10" x1="6" y1="30" x2="1" y2="35"/>
</g>
<circle fill="#0000FF" cx="33" cy="23" r="1"/>
<circle fill="#0000FF" cx="30" cy="27" r="1"/>
<circle fill="#0000FF" cx="36" cy="23" r="1"/>
<circle fill="#0000FF" cx="39" cy="24" r="1"/>
<g>
	<path fill="#81FCAD" d="M25,5c0,0.6-0.5,1-1,1l0,0c-0.5,0-1-0.4-1-1V2c0-0.5,0.5-1,1-1l0,0c0.5,0,1,0.5,1,1V5z"/>
</g>
<g>
	<path fill="#81FCAD" d="M15.9,6.9C16.1,7.4,16,8,15.5,8.3l0,0c-0.5,0.3-1.1,0.1-1.4-0.4l-1.5-2.6c-0.3-0.5-0.1-1.1,0.4-1.4l0,0
		c0.5-0.3,1.1-0.1,1.4,0.4L15.9,6.9z"/>
</g>
<g>
	<path fill="#81FCAD" d="M14.1,39.6c0.3-0.5,0.9-0.6,1.4-0.4l0,0c0.5,0.3,0.6,0.9,0.4,1.4l-1.5,2.6c-0.3,0.5-0.9,0.6-1.4,0.4l0,0
		c-0.5-0.3-0.6-0.9-0.4-1.4L14.1,39.6z"/>
</g>
<g>
	<path fill="#81FCAD" d="M23,42.5c0-0.5,0.5-1,1-1l0,0c0.5,0,1,0.5,1,1v3c0,0.5-0.5,1-1,1l0,0c-0.5,0-1-0.5-1-1V42.5z"/>
</g>
<g>
	<path fill="#81FCAD" d="M32.1,40.6c-0.3-0.5-0.1-1.1,0.4-1.4l0,0c0.5-0.3,1.1-0.1,1.4,0.4l1.5,2.6c0.3,0.5,0.1,1.1-0.4,1.4l0,0
		c-0.5,0.3-1.1,0.1-1.4-0.4L32.1,40.6z"/>
</g>
<g>
	<path fill="#81FCAD" d="M33.9,7.9c-0.3,0.5-0.9,0.6-1.4,0.4l0,0C32,8,31.9,7.4,32.1,6.9l1.5-2.6c0.3-0.5,0.9-0.6,1.4-0.4l0,0
		c0.5,0.3,0.6,0.9,0.4,1.4L33.9,7.9z"/>
</g>
</svg>
