<?xml version="1.0" encoding="utf-8"?>
<!-- Generator: Adobe Illustrator 18.1.1, SVG Export Plug-In . SVG Version: 6.00 Build 0)  -->
<svg version="1.1" id="Layer_1" xmlns="http://www.w3.org/2000/svg" xmlns:xlink="http://www.w3.org/1999/xlink" x="0px" y="0px"
	 viewBox="0 0 1019.6 383" enable-background="new 0 0 1019.6 383" xml:space="preserve">
<path id="path2999" fill="#999999" d="M116,102.5v185.3h185.3V102.5H116z M316.2,102.5v185.3h185.3V102.5H316.2z M516,102.5v185.3
	h185.3V102.5H516z M716.2,102.5v185.3h185.3V102.5H716.2z M808.6,121.2c40.8,0,73.7,33.4,73.7,74.1c0,40.7-32.9,73.7-73.7,73.7
	c-40.8,0-73.7-33-73.7-73.7C734.9,154.6,767.9,121.2,808.6,121.2z M143.3,129.8h131.2v23H220v84.8h54.5v22.6H142.9v-22.6H197v-84.8
	h-53.7V129.8z M342.6,129.8h17.5h48.6c36.5,0,66,29.6,66,66c0,36.5-29.5,64.7-66,64.7h-48.6h-17.5V129.8z M543.3,129.8h131.2v23
	H565.8v30.7h85.6v23.4h-85.6V238h108.6v22.6H543.3V129.8z M808.6,146.8c-26.7,0-48.1,21.9-48.1,48.6s21.5,48.1,48.1,48.1
	c26.7,0,48.1-21.5,48.1-48.1S835.3,146.8,808.6,146.8z M408.7,152.3l-31.9,0.4h-11.5v84.8h11.5h31.9c23.9,0,43.4-18.3,43.4-42.2
	C452.1,171.5,432.5,152.3,408.7,152.3z"/>
</svg>
