<?xml version="1.0" encoding="utf-8"?>
<!-- Generator: Adobe Illustrator 18.1.1, SVG Export Plug-In . SVG Version: 6.00 Build 0)  -->
<svg version="1.1" id="Layer_1" xmlns="http://www.w3.org/2000/svg" xmlns:xlink="http://www.w3.org/1999/xlink" x="0px" y="0px"
	 viewBox="0 0 558.8 1200" enable-background="new 0 0 558.8 1200" xml:space="preserve">
<g>
	<path fill="#232527" d="M558.8,1150.3c0,27.3-22.4,49.7-49.7,49.7H49.7c-27.3,0-49.7-22.4-49.7-49.7V49.7C0,22.4,22.4,0,49.7,0
		h459.5c27.3,0,49.7,22.4,49.7,49.7V1150.3z"/>
</g>
<rect x="14.5" y="124.4" fill="#FFFFFF" width="529.8" height="939.6"/>
<circle fill="#F9F9F9" cx="279.4" cy="1130" r="41.4"/>
<path fill="#F9F9F9" d="M346.9,71.2H211.9c-4.6,0-8.3-3.7-8.3-8.3l0,0c0-4.6,3.7-8.3,8.3-8.3h134.9c4.6,0,8.3,3.7,8.3,8.3l0,0
	C355.2,67.5,351.4,71.2,346.9,71.2z"/>
</svg>
