<?xml version="1.0" encoding="utf-8"?>
<!-- Generator: Adobe Illustrator 18.1.1, SVG Export Plug-In . SVG Version: 6.00 Build 0)  -->
<svg version="1.1" id="Layer_1" xmlns="http://www.w3.org/2000/svg" xmlns:xlink="http://www.w3.org/1999/xlink" x="0px" y="0px"
	 viewBox="0 0 558.8 1200" enable-background="new 0 0 558.8 1200" xml:space="preserve">
<g>
	<g>
		<path fill="#A4F9FF" d="M509.1,2c26.3,0,47.7,21.4,47.7,47.7v1100.7c0,26.3-21.4,47.7-47.7,47.7H49.7c-26.3,0-47.7-21.4-47.7-47.7
			V49.7C2,23.4,23.4,2,49.7,2H509.1 M509.1,0H49.7C22.4,0,0,22.4,0,49.7v1100.7c0,27.3,22.4,49.7,49.7,49.7h459.5
			c27.3,0,49.7-22.4,49.7-49.7V49.7C558.8,22.4,536.5,0,509.1,0L509.1,0z"/>
	</g>
</g>
<rect x="14.5" y="124.4" fill="none" stroke="#A4F9FF" stroke-width="2" stroke-miterlimit="10" width="529.8" height="939.6"/>
<circle fill="none" stroke="#A4F9FF" stroke-width="2" stroke-miterlimit="10" cx="279.4" cy="1130" r="41.4"/>
<path fill="none" stroke="#A4F9FF" stroke-width="2" stroke-miterlimit="10" d="M346.9,71.2H211.9c-4.6,0-8.3-3.7-8.3-8.3l0,0
	c0-4.6,3.7-8.3,8.3-8.3h134.9c4.6,0,8.3,3.7,8.3,8.3l0,0C355.2,67.5,351.4,71.2,346.9,71.2z"/>
</svg>
