<?xml version="1.0" encoding="utf-8"?>
<!-- Generator: Adobe Illustrator 18.1.1, SVG Export Plug-In . SVG Version: 6.00 Build 0)  -->
<svg version="1.1" id="Layer_1" xmlns="http://www.w3.org/2000/svg" xmlns:xlink="http://www.w3.org/1999/xlink" x="0px" y="0px"
	 viewBox="0 0 675 1449.5" enable-background="new 0 0 675 1449.5" xml:space="preserve">
<g>
	<path fill="#E5E5E5" d="M675,1389.5c0,33-27,60-60,60H60c-33,0-60-27-60-60V60C0,27,27,0,60,0h555c33,0,60,27,60,60V1389.5z"/>
</g>
<rect x="17.5" y="150.3" fill="#FFFFFF" width="640" height="1135"/>
<circle fill="#FFFFFF" cx="337.5" cy="1365" r="50"/>
<path fill="#FFFFFF" d="M419,86H256c-5.5,0-10-4.5-10-10v0c0-5.5,4.5-10,10-10H419c5.5,0,10,4.5,10,10v0C429,81.5,424.5,86,419,86z"
	/>
</svg>
