<?xml version="1.0" encoding="utf-8"?>
<!-- Generator: Adobe Illustrator 18.1.1, SVG Export Plug-In . SVG Version: 6.00 Build 0)  -->
<svg version="1.1" id="Layer_1" xmlns="http://www.w3.org/2000/svg" xmlns:xlink="http://www.w3.org/1999/xlink" x="0px" y="0px"
	 viewBox="0 0 412 585.5" enable-background="new 0 0 412 585.5" xml:space="preserve">
<path fill="#E5E5E5" stroke="#FFFFFF" stroke-width="2" stroke-miterlimit="10" d="M45,523c-21.3,0-40-18.8-40-40.2V97.2
	C5,75.8,23.6,60,45,60H354c21.3,0,37,15.8,37,37.2v385.7c0,21.4-15.6,40.2-37,40.2H45z"/>
<path fill="#E5E5E5" stroke="#FFFFFF" stroke-width="2" stroke-miterlimit="10" d="M382.7,482.8c0,15.8-12.9,28.8-28.7,28.8H45
	c-15.8,0-28.7-13-28.7-28.8V97.2c0-15.8,12.9-28.8,28.7-28.8H354c15.8,0,28.7,13,28.7,28.8V482.8z"/>
<rect x="40" y="95" fill="#FFFFFF" width="319" height="390"/>
<g>
	<path fill="#E5E5E5" d="M397.5,425.7c0,2.8-2.2,5-5,5l0,0c-2.8,0-5-2.2-5-5v-89c0-2.8,2.2-5,5-5l0,0c2.8,0,5,2.2,5,5V425.7z"/>
	<path fill="none" stroke="#FFFFFF" stroke-width="2" stroke-miterlimit="10" d="M397.5,425.7c0,2.8-2.2,5-5,5l0,0c-2.8,0-5-2.2-5-5
		v-89c0-2.8,2.2-5,5-5l0,0c2.8,0,5,2.2,5,5V425.7z"/>
</g>
<g>
	<path fill="#E5E5E5" d="M407.5,184.7c0,5.5-4.5,10-10,10l0,0c-5.5,0-10-4.5-10-10v-1.9c0-5.5,0-14.5,0-20v-1.9c0-5.5,4.5-10,10-10
		l0,0c5.5,0,10,4.5,10,10V184.7z"/>
	<path fill="none" stroke="#FFFFFF" stroke-width="2" stroke-miterlimit="10" d="M407.5,184.7c0,5.5-4.5,10-10,10l0,0
		c-5.5,0-10-4.5-10-10v-1.9c0-5.5,0-14.5,0-20v-1.9c0-5.5,4.5-10,10-10l0,0c5.5,0,10,4.5,10,10V184.7z"/>
</g>
<path fill="none" stroke="#FFFFFF" stroke-width="2" stroke-miterlimit="10" d="M41,60C91.7,52.3,96.7,3,96.7,3"/>
<path fill="none" stroke="#FFFFFF" stroke-width="2" stroke-miterlimit="10" d="M358.7,60C308,52.3,303,3,303,3"/>
<path fill="none" stroke="#FFFFFF" stroke-width="2" stroke-miterlimit="10" d="M41,523c50.7,7.7,55.7,57,55.7,57"/>
<path fill="none" stroke="#FFFFFF" stroke-width="2" stroke-miterlimit="10" d="M358.7,523c-50.7,7.7-55.7,57-55.7,57"/>
</svg>
