<svg xmlns="http://www.w3.org/2000/svg" viewBox="0 0 104.8 106.5" enable-background="new 0 0 104.8 106.5">
  <path fill="#98D5E9" d="M60.9 27.3L55 49.4h6.1c20.9 0 27.6-11 35-28.5L104.7.5C75.7-2 67 3.9 60.9 27.3"/><path fill="#FFC700" d="M0 .5L8.6 21c7.4 17.5 14.1 28.5 35 28.5h6.1l-5.9-22.1C37.7 3.9 29.1-2 0 .5"/><path fill="#FF8300" d="M43.8 79.2L49.7 57h-6.1C22.8 57 16 68 8.6 85.5L0 105.9c29.1 2.6 37.7-3.3 43.8-26.7"/><path fill="#00A1DF" d="M104.8 105.9l-8.6-20.4C88.7 68 82 57 61.1 57H55l5.9 22.1c6.1 23.5 14.8 29.4 43.9 26.8"/>
</svg>