<svg xmlns="http://www.w3.org/2000/svg" viewBox="662.6 720 174.8 60" enable-background="new 662.6 720 174.8 60">
  <path fill="#4E4E4E" d="M684.9 748.8c0 6.1-3.3 10.1-9.3 10.1-1.3 0-2.5-.2-3.6-.5v-18.7c1.2-.4 2.5-.7 3.8-.7 4.8 0 9.1 3.1 9.1 9.8m9.4-.4c0-11.3-6.8-17.4-17.3-17.4-4.5 0-9.7 1-14.4 2.7v45.8c1.6.3 3.2.5 4.8.5 1.5 0 3.1-.2 4.6-.5v-13c1 .1 2.3.3 3.8.3 11.8 0 18.5-7 18.5-18.4m134.3-2.9h-12.8c.8-4.9 3.2-7.1 6.6-7.1 3.8 0 6.2 2.7 6.2 7.1m8.8 1c0-9-6-15.4-14.8-15.4-9.8 0-16.3 6.9-16.3 18.1 0 11.1 6.9 17.7 17.4 17.7 4.2 0 8.2-.6 11.8-2.1 0-2.7-.6-4.5-1.9-6.9-2.2.8-5.3 1.6-8 1.6-6.5 0-9.3-2.5-10-7.5h21.3c.4-2 .5-3.8.5-5.5m-138.3-17.8c2.9.5 6.3.7 9.7 0v-8.2c-3-.6-6.3-.7-9.7 0v8.2zm0 3.1V766c3 .7 6.5.7 9.6 0v-34.2c-3.1.7-6.7.7-9.6 0m68.6 27.4c-1.2.4-2.7.6-4 .6-4.3 0-6.4-1.8-6.4-4.5 0-3 2.3-4.9 7.2-4.9 1.1 0 2.2.1 3.2.5v8.3zm9.1 5.6v-20.2c0-8.8-4.5-13.7-15.1-13.7-4 0-7.9.6-10.9 2.3v.3c0 2.6.7 4.7 1.9 6.5 2.5-1.2 4.9-1.7 7.8-1.7 5 0 7.2 1.5 7.2 6.2-1-.1-2.3-.2-3.8-.2-10.1 0-15.2 4.7-15.2 11.3 0 7 5.1 11.2 14.7 11.2 4.8 0 10.4-1 13.4-2m28 .5c.3-2.6-.1-4.8-1.1-6.7-1.2.4-2.7.6-4.1.6-3.1 0-4.5-1.5-4.5-6.2v-13.9h8.4c.6-2.5.6-5.1 0-7.4h-8.4v-11.2c-3.2-.7-6.5-.7-9.5 0v11.2h-5.5c-.6 2.3-.6 4.9 0 7.4h5.5v13.8c0 8.8 3.8 13.7 12.7 13.7 3 0 5.1-.5 6.5-1.3"/><path fill="#3EC4FC" d="M732.6 740.4l-1.9 7.2h2c6.8 0 9-3.6 11.4-9.3l2.8-6.7c-9.5-.7-12.3 1.2-14.3 8.8"/><path fill="#FFBD00" d="M712.8 731.7l2.8 6.7c2.4 5.7 4.6 9.3 11.4 9.3h2l-1.9-7.2c-2-7.7-4.8-9.6-14.3-8.8"/><path fill="#F18B37" d="M727.1 757.3l1.9-7.2h-2c-6.8 0-9 3.6-11.4 9.3l-2.8 6.7c9.5.7 12.3-1.2 14.3-8.8"/><path fill="#0090DB" d="M746.9 766l-2.8-6.7c-2.4-5.7-4.6-9.3-11.4-9.3h-2l1.9 7.2c2 7.7 4.8 9.6 14.3 8.8"/>
</svg>