<?xml version="1.0" encoding="utf-8"?>
<!-- Generator: Adobe Illustrator 18.1.1, SVG Export Plug-In . SVG Version: 6.00 Build 0)  -->
<svg version="1.1" id="Layer_1" xmlns="http://www.w3.org/2000/svg" xmlns:xlink="http://www.w3.org/1999/xlink" x="0px" y="0px"
	 viewBox="0 0 1019.6 383" enable-background="new 0 0 1019.6 383" xml:space="preserve">
<path fill="#999999" d="M451.3,205c0,9.4-1,14.1-7.8,14.1c-7.1,0-8.3-4.3-8.3-12.8V131h-55.5v88.5c0,15.4,3.7,28.1,12.4,38
	c8.7,10,19.4,14.9,32.8,14.9c9.1,0,18.2-2.8,27.6-8.4c-5.2,19.7-16.9,29.6-34.5,29.6c-5.5,0-10.7-1.5-19.4-4.6c0,0-8.2-2.6-18.9-8.9
	c0,13.6,0,46,0,46s10.7,6.7,18.9,9.8c10.1,3.8,20.1,5.8,30.1,5.8c22.9,0,42-8.8,58.1-26.3c13.5-14.7,19.9-34.1,19.9-58V131h-55.5
	V205z M577.1,74.3c-65.8,5.9-61.4,76.3-61.4,76.3s0,110.2,0,123.1c35.8,0,53.7-17.2,53.7-41c0-10.7,0-16.1,0-16.1h26.4v-53.5h-26.4
	V156c0-8.4,2.2-14.8,5.9-19.3c3.6-4.4,8.9-6.7,15.6-6.8c4.4,0.1,12.5,1.5,14.2,7.9l0.1,0.5V194c0,20.5,3.9,37,12.2,49.4
	c6.6,9.7,15.1,17.4,26,23.1c10.9,5.7,22.3,8.5,34.5,8.5c1.4,0,3.8,0,6.1-0.1v-56.7c-11.3,0-16.2-2.1-19.8-6.4
	c-3.6-4.3-5.4-12.9-5.4-23.6h19.3V131h-18.3c-3.4-21.4-16.3-53.7-64-57.3c0,0-5.6-0.2-10.1-0.1C582.2,73.8,577.1,74.3,577.1,74.3z
	 M389.5,269.3L389.5,269.3c-6.1,3.9-13.4,6.5-18.8,7.9v0.3l-0.2-0.3c-3.3,0.7-6.5,1.1-9.7,1.1c-13.5,0-24.4-5-33.1-15.1
	c-8.8-10-12.5-22.8-12.5-38.4V77.3h55.5v147.6c0,15.5,3.7,28.3,12.5,38.4C385.2,265.5,387.3,267.5,389.5,269.3z"/>
</svg>
