<?xml version="1.0" encoding="utf-8"?>
<!-- Generator: Adobe Illustrator 18.1.1, SVG Export Plug-In . SVG Version: 6.00 Build 0)  -->
<svg version="1.1" id="Layer_1" xmlns="http://www.w3.org/2000/svg" xmlns:xlink="http://www.w3.org/1999/xlink" x="0px" y="0px"
	 viewBox="0 0 1019.6 383" enable-background="new 0 0 1019.6 383" xml:space="preserve">
<g>
	<path fill="#999999" d="M365.9,44.5v290h290v-290H365.9z M581.9,150h-5.6c-2.1,0-4.5,2.7-4.5,4.6v69.7c0,1.9,2.4,4.8,4.5,4.8h5.6
		v16.2h-50.3v-16.2h10.1v-73.2h-0.5l-24.8,89.4h-19.2l-24.5-89.4h-0.5v73.2h10.6v16.2H440v-16.2h5.4c2.2,0,4.6-2.9,4.6-4.8v-69.7
		c0-1.9-2.4-4.6-4.6-4.6H440v-16.8h53.2l17.5,65.1h0.5l17.6-65.1h53.1V150z"/>
</g>
</svg>
