<?xml version="1.0" encoding="utf-8"?>
<!-- Generator: Adobe Illustrator 18.1.1, SVG Export Plug-In . SVG Version: 6.00 Build 0)  -->
<svg version="1.1" id="Layer_1" xmlns="http://www.w3.org/2000/svg" xmlns:xlink="http://www.w3.org/1999/xlink" x="0px" y="0px"
	 viewBox="0 0 48 48" enable-background="new 0 0 48 48" xml:space="preserve">
<polyline fill="#81FCAD" points="26,24 19,24 19,17 "/>
<polyline fill="#81FCAD" points="40,32 35,32 35,27 "/>
<g>
	<path fill="#0000FF" d="M26,32v2h-8v-2H26 M28,30H16v6h12V30L28,30z"/>
</g>
<g>
	<path fill="#0000FF" d="M29,36v1H15v-1H29 M29,34H15c-1.1,0-2,0.9-2,2v1c0,1.1,0.9,2,2,2h14c1.1,0,2-0.9,2-2v-1
		C31,34.9,30.1,34,29,34L29,34z"/>
</g>
<g>
	<path fill="#0000FF" d="M41,23v13h-7V23H41 M41,21h-7c-1.1,0-2,0.9-2,2v13c0,1.1,0.9,2,2,2h7c1.1,0,2-0.9,2-2V23
		C43,21.9,42.1,21,41,21L41,21z"/>
</g>
<polygon fill="#0000FF" points="10,27 10,14 34,14 34,21 36,21 36,12 8,12 8,29 32,29 32,27 "/>
<path fill="#0000FF" d="M32,30H7V11h30v10h2V11c0-1.1-0.9-2-2-2H7c-1.1,0-2,0.9-2,2v19c0,1.1,0.9,2,2,2h25V30z"/>
</svg>
