<?xml version="1.0" encoding="utf-8"?>
<!-- Generator: Adobe Illustrator 18.1.1, SVG Export Plug-In . SVG Version: 6.00 Build 0)  -->
<svg version="1.1" id="Layer_1" xmlns="http://www.w3.org/2000/svg" xmlns:xlink="http://www.w3.org/1999/xlink" x="0px" y="0px"
	 viewBox="0 0 1019.6 383" enable-background="new 0 0 1019.6 383" xml:space="preserve">
<g id="fLTxmd_1_">
	<g>
		<path fill="#999999" d="M506,56.5c3.3,0,6.5,0,9.8,0c5,0.8,10,1.3,14.9,2.6c22.6,5.8,39.7,18.8,50.3,39.7
			c7.5,14.7,9.8,30.6,8.8,46.9c-0.4,6.7-1.6,13.4-2.5,20c-0.4,2.9,0.6,4.3,3.6,4.2c0.7,0,1.4,0,2-0.3c3.2-1.2,6.5-2.2,9.6-3.7
			c6.5-3,13.4-2,18.5,2.9c3.2,3.1,4.4,6.7,2.7,10.9c-1.7,4.1-4.3,7.2-9.3,7.8c-6.7,0.8-13.2,2.7-18.9,6.7c-6,4.2-8,10-5.4,16.9
			c1.2,3.3,3,6.5,5.1,9.3c3.5,4.8,7.3,9.5,11.3,14c2.9,3.4,6.1,6.6,9.4,9.6c5.9,5.3,12.4,9.6,20.2,11.9c3.6,1.1,7.3,2.2,10.8,3.7
			c2.2,0.9,4.2,2.2,6,3.7c2.5,2.1,2.5,4.6,0.1,6.7c-2,1.7-4.3,3.1-6.6,4.2c-6.9,3.2-14.3,5.1-21.7,6.8c-3.5,0.8-7,1.5-10.5,2.3
			c0,1.1,0.1,1.9,0,2.8c-0.5,3.1-0.8,6.3-1.8,9.3c-1.5,4.2-4.9,6.4-9.3,6.2c-3.3-0.2-6.7-0.9-9.8-2.1c-7.8-3.1-15.2-3-22.4,1.4
			c-5.1,3-10.1,6.2-15.2,9.2c-9.9,5.8-20,11-31.1,14c-4.1,1.1-8.4,1.7-12.6,2.5c-0.5,0-1,0-1.5,0c-0.3-0.1-0.6-0.2-0.9-0.3
			c-8.5-0.7-16.5-3.3-24.3-6.6c-10.8-4.6-20.9-10.6-30.7-17c-8.3-5.4-16.9-7.2-26.2-2.7c-1.4,0.7-3.1,1.1-4.6,1.4
			c-8.6,1.9-14.1-1.9-15.3-10.6c-0.3-2.4-0.3-4.8-0.5-7.3c-0.4-0.1-0.7-0.2-1.1-0.3c-6.1-1.4-12.2-2.6-18.2-4.2
			c-5.9-1.5-11.8-3.4-17-6.7c-5.7-3.6-5.7-7.4,0.1-10.6c3.4-1.9,7.2-3.1,10.8-4.5c3.9-1.5,8-2.6,11.7-4.4
			c6.8-3.4,12.7-8.3,17.7-13.9c5.3-5.9,10.3-12.1,15.1-18.3c2-2.6,3.6-5.7,4.8-8.8c2.7-7,0.7-12.9-5.5-17.2c-4.3-3-9.1-4.6-14.1-5.7
			c-2.6-0.6-5.4-0.6-7.9-1.6c-7.5-3.1-9-13.2-2.9-18.5c5.6-4.8,11.6-5.1,18.2-2.3c3.4,1.4,6.8,2.8,10.4,3.7c3.8,0.9,5.3-0.9,4.5-4.6
			c-2.9-14.9-3.7-29.8-0.9-44.9c5.9-31.6,28.7-55.2,60.1-61.9C497.8,57.6,501.9,57.1,506,56.5z"/>
	</g>
</g>
</svg>
