<?xml version="1.0" encoding="utf-8"?>
<!-- Generator: Adobe Illustrator 18.1.1, SVG Export Plug-In . SVG Version: 6.00 Build 0)  -->
<svg version="1.1" id="Layer_1" xmlns="http://www.w3.org/2000/svg" xmlns:xlink="http://www.w3.org/1999/xlink" x="0px" y="0px"
	 viewBox="0 0 1020 384" enable-background="new 0 0 1020 384" xml:space="preserve">
<path fill="#999999" d="M607.5,46.5H414.4c-26.8,0-48.5,21.7-48.5,48.5V288c0,26.8,21.7,48.5,48.5,48.5h193.1
	c26.8,0,48.5-21.7,48.5-48.5V95C655.9,68.2,634.2,46.5,607.5,46.5L607.5,46.5z M603.2,268.5c0,8.4-6.8,15.3-15.3,15.3H434
	c-8.4,0-15.3-6.8-15.3-15.3V114.5c0-8.4,6.8-15.3,15.3-15.3h153.9c8.4,0,15.3,6.8,15.3,15.3V268.5z"/>
<path fill="#999999" d="M489.7,218.8c-3.3,0-6.1-2.7-6.1-6.1v-42.4c0-3.4,2.7-6.1,6.1-6.1h42.4c3.4,0,6.1,2.7,6.1,6.1v42.4
	c0,3.4-2.7,6.1-6.1,6.1L489.7,218.8L489.7,218.8z"/>
</svg>
