<?xml version="1.0" encoding="utf-8"?>
<!-- Generator: Adobe Illustrator 18.1.1, SVG Export Plug-In . SVG Version: 6.00 Build 0)  -->
<svg version="1.1" id="Layer_1" xmlns="http://www.w3.org/2000/svg" xmlns:xlink="http://www.w3.org/1999/xlink" x="0px" y="0px"
	 viewBox="0 0 320 320" enable-background="new 0 0 320 320" xml:space="preserve">
<path fill="#999999" d="M304.9,70.1c-10.7,4.7-22.1,7.9-34.2,9.4c12.3-7.4,21.7-19,26.1-32.9c-11.5,6.8-24.2,11.8-37.7,14.4
	c-10.8-11.6-26.3-18.8-43.4-18.8c-32.8,0-59.5,26.6-59.5,59.5c0,4.7,0.5,9.2,1.6,13.6c-49.4-2.5-93.2-26.2-122.6-62.1
	c-5.1,8.8-8,19-8,29.9c0,20.6,10.5,38.8,26.4,49.5c-9.7-0.3-18.9-3-26.9-7.4c0,0.2,0,0.5,0,0.8c0,28.8,20.5,52.8,47.7,58.3
	c-5,1.4-10.3,2.1-15.7,2.1c-3.9,0-7.6-0.4-11.2-1.1c7.6,23.6,29.5,40.8,55.5,41.3c-20.3,15.9-46,25.5-73.8,25.5
	c-4.8,0-9.5-0.3-14.2-0.8c26.3,16.9,57.6,26.7,91.1,26.7c109.3,0,169.1-90.6,169.1-169.2c0-2.6,0-5.1-0.2-7.7
	C286.8,92.5,296.9,82.1,304.9,70.1z"/>
</svg>
