<?xml version="1.0" encoding="utf-8"?>
<!-- Generator: Adobe Illustrator 18.1.1, SVG Export Plug-In . SVG Version: 6.00 Build 0)  -->
<svg version="1.1" id="Layer_1" xmlns="http://www.w3.org/2000/svg" xmlns:xlink="http://www.w3.org/1999/xlink" x="0px" y="0px"
	 viewBox="0 0 1019.6 383" enable-background="new 0 0 1019.6 383" xml:space="preserve">
<g>
	<g>
		<g>
			<g>
				<path fill="#999999" d="M224.2,136.7v61.8c0,21.1-10.2,33.6-40.8,33.6c-30.7,0-41-12.5-41-33.6V155
					c-0.4-10.3-8.8-18.6-19.2-18.6v12c3.7,0,6.7,2.9,7.1,6.6v47.6c0,24.5,19.2,41.9,53.1,41.9c33.8,0,52.9-17.4,52.9-41.9v-66H224.2
					z"/>
				<path fill="#999999" d="M575.9,230.3v-29c0-4,3.4-7.2,7.3-7.3h52.7v-12.2H583c-2.6,0.1-4.9,0.6-7.1,1.5v-34.9H662v-12.1h-98.3
					v106.1h101.9v-12.1H575.9z"/>
			</g>
		</g>
		<path fill="#999999" d="M887,231.1c-2.9,2.3-7.1,1.9-9.6-0.8l-23.2-29.5c17.3-0.5,31.2-14.7,31.2-32.1c0-17.8-14.4-32.2-32.2-32.2
			h-78.5v106.1h12.1l0.1-34.6c0.1-3.9,3.4-7.1,7.3-7.1l44.7,0l29,36.8c6.7,7.9,18.4,9.2,26.6,2.8L887,231.1z M794.1,189.5
			c-2.6,0-5,0.5-7.2,1.4l-0.1-43.1l66.5,0c11.5,0,20.9,9.3,20.9,20.8c0,11.5-9.3,20.9-20.9,20.9L794.1,189.5z"/>
		<path fill="#999999" d="M441.8,187.7c6.8-5.2,11.3-13.4,11.3-22.7c0-15.7-12.8-28.5-28.5-28.5l-79.3,0v106.1h79.1
			c16.7,0,30.2-13.5,30.2-30.3C454.4,202.1,449.4,193.2,441.8,187.7z M357.3,147.9l67.3,0.1c9.4,0,17,7.6,17,17.1
			c0,9.4-7.6,17-17,17h-60.9c-2.2,0.2-4.4,0.7-6.3,1.5V147.9z M424.3,231.1l-67-0.1v-30.1c0.1-4,3.4-7.4,7.4-7.4l59.6,0
			c10.4,0,18.8,8.4,18.8,18.7C443,222.7,434.6,231.1,424.3,231.1z"/>
	</g>
</g>
</svg>
